<svg width="30" height="22" viewBox="0 0 30 22" fill="none" xmlns="http://www.w3.org/2000/svg">
<g clip-path="url(#clip0_1_3478)">
<path d="M0 11.5416C0.117826 11.7943 0.256303 12.0369 0.414021 12.2669C0.545046 12.4201 0.708057 12.5427 0.891569 12.626C1.07508 12.7093 1.27462 12.7514 1.47615 12.7492C1.60192 12.7492 1.72946 12.7492 1.85699 12.7492C10.6545 12.7492 19.452 12.7492 28.2496 12.7492C28.5028 12.7551 28.7555 12.7227 28.999 12.6531C29.3166 12.5461 29.5882 12.3341 29.7692 12.052C29.9502 11.7699 30.0297 11.4346 29.9948 11.1012C29.9618 10.768 29.8178 10.4557 29.5858 10.2144C29.3538 9.97319 29.0475 9.81706 28.716 9.7712C28.5514 9.7511 28.3857 9.74234 28.2199 9.74498C19.4422 9.74498 10.6638 9.74149 1.88494 9.7345C0.952083 9.7345 0.298725 10.0368 0 10.9579V11.5416Z" fill="black"/>
<path d="M0 2.51488C0.190415 3.12307 0.54329 3.56348 1.19664 3.70854C1.33075 3.73419 1.46717 3.74591 1.60369 3.74349H20.9072C21.7266 3.74349 22.3362 3.25414 22.4795 2.49391C22.539 2.15407 22.4781 1.8041 22.3071 1.50447C22.1361 1.20483 21.8659 0.974347 21.5431 0.852847C21.3506 0.785016 21.148 0.750731 20.9439 0.751482C14.4803 0.751482 8.01666 0.751482 1.55302 0.751482C1.22389 0.735712 0.898916 0.8303 0.629615 1.02025C0.360314 1.2102 0.162097 1.48465 0.0663841 1.80008C0.0483316 1.84262 0.0267097 1.88354 0.00174863 1.92242L0 2.51488Z" fill="black"/>
<path d="M0 20.5683C0.0745665 20.7452 0.16094 20.9168 0.258542 21.0821C0.393259 21.2932 0.580544 21.4655 0.801983 21.5823C1.02342 21.699 1.2714 21.7561 1.52157 21.748H5.47487C8.62633 21.748 11.7784 21.748 14.931 21.748C15.752 21.748 16.3635 21.2394 16.477 20.4809C16.5111 20.2706 16.4996 20.0555 16.4434 19.85C16.3873 19.6446 16.2877 19.4536 16.1514 19.2899C16.0151 19.1262 15.8453 18.9937 15.6535 18.9013C15.4616 18.8089 15.2522 18.7587 15.0393 18.7542C14.5519 18.742 14.0628 18.7542 13.5754 18.7542H1.83602C0.765156 18.7542 0.405287 18.9954 0 19.9776V20.5683Z" fill="black"/>
</g>
<defs>
<clipPath id="clip0_1_3478">
<rect width="30" height="21" fill="white" transform="translate(0 0.747986)"/>
</clipPath>
</defs>
</svg>
