<svg width="43" height="43" viewBox="0 0 43 43" fill="none" xmlns="http://www.w3.org/2000/svg">
<rect x="0.628906" y="1.24799" width="41" height="41" rx="9.5" fill="#F9F9F9"/>
<rect x="0.628906" y="1.24799" width="41" height="41" rx="9.5" stroke="#D9D9D9"/>
<g clip-path="url(#clip0_1_3474)">
<path d="M8.2583 22.9701V20.4287C8.3327 20.0541 8.40943 19.6794 8.47917 19.3036C9.65909 12.9239 15.7888 7.74827 23.2857 8.91285C30.2175 9.99043 34.9104 16.0708 34.1851 23.0363C33.6213 28.423 30.6163 32.0722 25.5606 33.9907C24.5144 34.3874 23.3647 34.5034 22.2627 34.7481H20.1795C19.918 34.7075 19.6552 34.6716 19.3948 34.624C13.9219 33.6126 10.3616 30.4552 8.71399 25.152C8.49544 24.4444 8.4071 23.6974 8.2583 22.9701ZM29.4747 30.091C34.1804 25.4072 34.1304 17.82 29.4166 13.3369C24.5725 8.72842 17.0571 8.97781 12.5606 13.9168C8.13159 18.7886 8.80234 26.0614 13.0861 30.0875C14.2869 28.9612 15.8016 28.3859 17.2919 27.7676C17.594 27.64 17.8835 27.4846 18.1568 27.3037C18.9647 26.7747 19.339 25.4106 18.8415 24.5836C18.2824 23.6557 17.6639 22.7521 17.0246 21.8728C16.5782 21.2604 16.4584 20.3742 16.9502 19.9879C17.4419 19.6017 17.443 19.176 17.3431 18.6598C17.2722 18.3014 17.2268 17.9383 17.1362 17.5857C16.863 16.5139 17.1838 15.6521 18.0382 14.977C18.2603 14.7954 18.5011 14.6379 18.7566 14.5072C20.7596 13.5248 22.6312 13.8113 24.2656 15.3192C24.3327 15.3857 24.4115 15.4392 24.4981 15.4769C25.4502 15.8423 25.5351 15.9409 25.4467 16.9327C25.3932 17.5242 25.2375 18.1077 25.2038 18.6992C25.1852 19.0472 25.1956 19.5112 25.3967 19.7501C26.0152 20.4913 26.0489 21.2581 25.3967 21.9958C25.1461 22.3076 24.9195 22.638 24.719 22.9841C24.4865 23.3541 24.2935 23.7612 24.0215 24.1069C23.0613 25.348 23.3612 26.8107 24.7527 27.5368C24.991 27.6609 25.2363 27.7688 25.4851 27.8767C26.9033 28.4566 28.3029 29.0471 29.4747 30.091Z" fill="#808080"/>
</g>
<defs>
<clipPath id="clip0_1_3474">
<rect width="26" height="26" fill="white" transform="translate(8.2583 8.74799)"/>
</clipPath>
</defs>
</svg>
