<svg width="21" height="20" viewBox="0 0 21 20" fill="none" xmlns="http://www.w3.org/2000/svg">
<g clip-path="url(#clip0_1_3550)">
<path d="M0.00348788 6.29149H20.4616V6.78399C20.4616 10.3559 20.4616 13.927 20.4616 17.4989C20.4616 18.8621 19.5786 19.7412 18.1892 19.7454C15.9032 19.7513 13.618 19.7471 11.332 19.7471C8.22807 19.7471 5.12417 19.7471 2.01942 19.7471C0.667279 19.7471 0.0153413 19.1234 0.00772124 17.7737C-0.00582552 15.5045 0.00348788 13.2361 0.00348788 10.9669C0.00348788 9.4272 0.00348788 7.88666 0.00348788 6.29233V6.29149ZM9.99507 16.8912C10.2203 16.8912 10.4464 16.8954 10.6716 16.8912C11.1279 16.882 11.2803 16.7374 11.2896 16.2869C11.2989 15.8255 11.293 15.3633 11.2913 14.901C11.2896 14.5346 11.1127 14.3119 10.7342 14.3018C10.2406 14.2892 9.747 14.2934 9.25339 14.3001C8.88085 14.3052 8.67934 14.4943 8.6785 14.8741C8.6785 15.112 8.68104 15.3498 8.67765 15.5877C8.65987 16.919 8.62516 16.9139 9.99507 16.8921V16.8912ZM16.3841 15.6171C16.3841 15.365 16.3849 15.1128 16.3841 14.8615C16.3824 14.5027 16.1876 14.311 15.838 14.3018C15.3308 14.2883 14.8228 14.29 14.3148 14.3018C13.9821 14.3094 13.7856 14.4993 13.7763 14.8288C13.7619 15.3465 13.7594 15.865 13.778 16.3819C13.7899 16.7114 13.9922 16.8879 14.33 16.8895C14.838 16.8921 15.3452 16.8921 15.8532 16.8895C16.1953 16.8879 16.3764 16.7139 16.3832 16.3735C16.3883 16.1214 16.3841 15.8692 16.3849 15.6179L16.3841 15.6171ZM15.0633 11.1896C15.3173 11.1896 15.5704 11.1871 15.8244 11.1896C16.2139 11.1938 16.3891 10.9988 16.3858 10.6198C16.3815 10.1441 16.3824 9.66841 16.3858 9.19355C16.3883 8.81451 16.1944 8.61701 15.8227 8.6086C15.33 8.59768 14.8363 8.59936 14.3436 8.60776C13.9677 8.61365 13.7755 8.81871 13.7721 9.19019C13.7687 9.66589 13.767 10.1416 13.7721 10.6164C13.7763 10.9854 13.96 11.1896 14.3444 11.1896C14.584 11.1896 14.8236 11.1896 15.0633 11.1896ZM9.9756 11.1896C10.2296 11.1896 10.4828 11.1871 10.7368 11.1896C11.1059 11.1947 11.2846 11.003 11.2896 10.6509C11.2973 10.1618 11.2956 9.67177 11.2905 9.18263C11.2871 8.83468 11.1093 8.62037 10.7537 8.61112C10.233 8.59684 9.71059 8.596 9.19073 8.61365C8.85715 8.62457 8.68188 8.82376 8.68019 9.1591C8.6785 9.66252 8.67426 10.166 8.68273 10.6694C8.68866 11.0072 8.87916 11.1804 9.21614 11.1871C9.46929 11.193 9.72329 11.1879 9.97645 11.1888L9.9756 11.1896ZM4.90318 11.1913C5.79614 11.1913 6.24262 10.7447 6.24262 9.85163C6.24262 9.01958 5.81279 8.60356 4.95314 8.60356C4.07542 8.60356 3.63656 9.04199 3.63656 9.91886C3.63656 10.7666 4.05877 11.1905 4.90318 11.1905V11.1913ZM4.94721 16.8912C5.14448 16.8912 5.34176 16.8937 5.53903 16.8912C6.05297 16.8845 6.23161 16.7172 6.24008 16.218C6.2477 15.7701 6.23923 15.3221 6.24177 14.875C6.24431 14.4917 6.04196 14.3068 5.67027 14.3001C5.19105 14.2926 4.71184 14.2968 4.23262 14.2984C3.85754 14.3001 3.65434 14.4884 3.63995 14.8607C3.63063 15.0985 3.6391 15.3364 3.63571 15.5742C3.61455 16.945 3.63402 16.9114 4.94721 16.8912Z" fill="white"/>
<path d="M16.311 0.768323C17.0722 0.768323 17.78 0.715375 18.476 0.78009C19.6503 0.890188 20.3996 1.76678 20.4021 2.93248C20.4038 3.58718 20.4021 4.24105 20.4021 4.91929H0.0667515C0.0667515 3.96286 -0.0153758 3.02156 0.0904583 2.10127C0.188672 1.24318 0.897338 0.760759 1.77364 0.756557C2.33753 0.754036 2.90141 0.76244 3.4653 0.768323C3.489 0.768323 3.51271 0.791015 3.58214 0.827155C3.58214 1.37513 3.57875 1.94579 3.58298 2.51645C3.58637 3.01064 3.82175 3.28546 4.22137 3.27958C4.61762 3.2737 4.84707 2.99551 4.8513 2.49712C4.85638 1.93823 4.85215 1.37849 4.85215 0.787654H15.0419C15.0419 1.25494 15.0419 1.73736 15.0419 2.21978C15.0419 2.38787 15.03 2.55848 15.0537 2.7232C15.1045 3.07871 15.3907 3.31236 15.7319 3.27538C16.0883 3.23588 16.3 3.02913 16.3068 2.66773C16.3178 2.05337 16.3102 1.439 16.3102 0.770004L16.311 0.768323Z" fill="white"/>
</g>
<defs>
<clipPath id="clip0_1_3550">
<rect width="20.4615" height="19" fill="white" transform="translate(0 0.747925)"/>
</clipPath>
</defs>
</svg>
