<svg width="19" height="20" viewBox="0 0 19 20" fill="none" xmlns="http://www.w3.org/2000/svg">
<g clip-path="url(#clip0_1_3541)">
<path d="M18.9699 5.1007C18.9699 5.92986 18.9803 6.75902 18.9672 7.58818C18.9515 8.62038 18.3202 9.25175 17.2801 9.25961C15.5995 9.2714 13.9189 9.27271 12.2396 9.25961C11.2402 9.25175 10.5957 8.61514 10.5866 7.62355C10.5721 5.922 10.5721 4.21914 10.5866 2.51759C10.5957 1.52469 11.2389 0.889391 12.2383 0.881532C13.9189 0.868433 15.5982 0.869743 17.2788 0.881532C18.3162 0.888081 18.9502 1.52076 18.9659 2.55165C18.979 3.40308 18.9686 4.2532 18.9686 5.10463L18.9699 5.1007Z" fill="black"/>
<path d="M4.27418 19.7414C3.44502 19.7414 2.61586 19.7505 1.7867 19.7387C0.754501 19.7243 0.115273 19.0917 0.107414 18.0608C0.0956245 16.3802 0.0956245 14.6996 0.107414 13.0203C0.115273 11.992 0.757121 11.3646 1.80111 11.3581C3.45943 11.3476 5.11775 11.3489 6.77608 11.3581C7.85281 11.3646 8.48156 11.992 8.48811 13.0688C8.49859 14.7271 8.49859 16.3854 8.48811 18.0437C8.48156 19.1126 7.84495 19.7296 6.76167 19.7414C5.93251 19.7492 5.10335 19.7427 4.27418 19.7427V19.7414Z" fill="black"/>
<path d="M10.5839 15.4882C10.5839 14.659 10.5721 13.8298 10.5865 13.0007C10.6036 12.0051 11.2362 11.3672 12.2344 11.3594C13.9359 11.3463 15.6388 11.3437 17.3404 11.3594C18.328 11.3685 18.9594 12.0169 18.9659 13.0216C18.979 14.7022 18.979 16.3828 18.9659 18.0621C18.9581 19.0956 18.3215 19.7309 17.2853 19.7388C15.6047 19.7505 13.9241 19.7519 12.2449 19.7388C11.2179 19.7309 10.597 19.0864 10.5839 18.0424C10.5734 17.191 10.5813 16.3409 10.5826 15.4895L10.5839 15.4882Z" fill="black"/>
<path d="M4.24397 0.747925C4.671 0.987635 5.0954 1.13434 5.39668 1.41335C6.27431 2.2281 7.11264 3.08739 7.94835 3.94668C8.67534 4.69463 8.66879 5.55785 7.93001 6.31759C7.11002 7.16116 6.27824 7.99425 5.43336 8.81425C4.67755 9.54779 3.81695 9.5491 3.06114 8.81556C2.20054 7.98116 1.35173 7.13496 0.519946 6.27174C-0.182156 5.54213 -0.171677 4.68284 0.539595 3.9493C1.374 3.0887 2.21233 2.23072 3.08996 1.41466C3.39123 1.13565 3.81564 0.988945 4.24397 0.747925Z" fill="black"/>
</g>
<defs>
<clipPath id="clip0_1_3541">
<rect width="18.9764" height="19" fill="white" transform="translate(0 0.747925)"/>
</clipPath>
</defs>
</svg>
