<svg width="23" height="18" viewBox="0 0 23 18" fill="none" xmlns="http://www.w3.org/2000/svg">
<g clip-path="url(#clip0_1_3547)">
<path d="M1.54961 8.35476C1.28804 8.35476 1.0822 8.41139 0.936584 8.34127C0.718162 8.23611 0.435021 8.07881 0.367607 7.87926C0.19143 7.35882 0.0997468 6.80692 0.00986097 6.26132C-0.0566546 5.85953 0.206711 5.58268 0.641759 5.57189C1.2404 5.55751 1.84084 5.54672 2.43768 5.57639C2.75138 5.59167 2.87902 5.47212 2.98508 5.19527C3.16755 4.72157 3.39856 4.26765 3.61069 3.80563C4.17967 2.5679 5.15133 1.81466 6.44389 1.44523C9.63933 0.531091 12.8447 0.549967 16.0716 1.29153C17.9124 1.71489 19.152 2.8061 19.7389 4.56247C20.0221 5.41099 20.4553 5.7238 21.3119 5.57728C21.6463 5.51976 21.9995 5.55841 22.3438 5.57099C22.8382 5.58897 23.0719 5.88919 22.9793 6.37817C22.9011 6.78895 22.8112 7.19793 22.7258 7.60781C22.5964 8.23071 22.4562 8.34667 21.8198 8.35566C21.7065 8.35745 21.5924 8.36644 21.5663 8.36824C21.8153 9.01722 22.147 9.64372 22.2917 10.3116C22.5685 11.5889 22.1982 12.7322 21.3506 13.7299C21.222 13.8818 21.1402 14.1164 21.1303 14.3178C21.1007 14.885 21.125 15.4557 21.1187 16.0238C21.1115 16.6836 20.7897 17.0216 20.129 17.0386C19.5304 17.0539 18.9308 17.0503 18.3322 17.0404C17.6176 17.0287 17.2967 16.7025 17.2796 15.9897C17.2742 15.7667 17.2796 15.5447 17.2796 15.2895H5.72211C5.72211 15.5672 5.73469 15.8333 5.71941 16.0966C5.68615 16.6854 5.37335 17.0144 4.7873 17.0341C4.12933 17.0566 3.46957 17.0575 2.8116 17.0341C2.20577 17.0126 1.89657 16.6656 1.88398 16.0517C1.87859 15.7973 1.8705 15.542 1.88488 15.2886C1.92982 14.5065 1.7905 13.8486 1.29433 13.1484C0.319967 11.7713 0.400865 10.2531 1.25748 8.7943C1.33118 8.66846 1.41837 8.54981 1.54961 8.35386V8.35476ZM4.36933 6.46086H18.6297C18.4077 5.93683 18.1821 5.46672 18.0068 4.97864C17.623 3.9099 16.8545 3.31845 15.7767 3.0452C12.9031 2.31802 10.0348 2.32072 7.16568 3.06138C6.14367 3.32474 5.39852 3.89282 5.02549 4.91303C4.84123 5.41549 4.60842 5.90087 4.36933 6.46086ZM4.96797 12.9183C5.90727 12.9299 6.71894 12.1273 6.72164 11.1844C6.72434 10.2567 5.95491 9.47024 5.0201 9.44507C4.08079 9.4199 3.26373 10.2064 3.24485 11.1538C3.22598 12.0922 4.02147 12.9066 4.96707 12.9183H4.96797ZM19.7731 11.1673C19.7677 10.2118 18.9713 9.42889 18.0212 9.44328C17.0864 9.45856 16.3206 10.2334 16.3143 11.17C16.308 12.1219 17.099 12.9201 18.0464 12.9174C19.0001 12.9147 19.7785 12.1255 19.7731 11.1664V11.1673Z" fill="black"/>
</g>
<defs>
<clipPath id="clip0_1_3547">
<rect width="23" height="16.3053" fill="white" transform="translate(0 0.747925)"/>
</clipPath>
</defs>
</svg>
