<svg width="19" height="20" viewBox="0 0 19 20" fill="none" xmlns="http://www.w3.org/2000/svg">
<g clip-path="url(#clip0_1_3514)">
<path d="M10.3916 0.747925C10.3916 1.6618 10.3902 2.51485 10.3916 3.3679C10.3931 3.89456 10.5808 4.08446 11.103 4.08668C11.9657 4.08891 12.8284 4.08668 13.7104 4.08668V6.608C12.7379 6.64806 12.1163 7.12799 11.8982 8.10937C11.7869 8.08341 11.6942 8.06041 11.6008 8.04038C10.8649 7.88312 10.178 8.16871 9.7819 8.81109C9.55492 9.17902 9.34574 9.55733 9.12914 9.93192C8.5053 11.012 8.55203 11.5438 9.36725 12.4822C8.80943 12.9962 8.5461 13.6186 8.8072 14.37C8.90734 14.6578 9.08315 14.9204 9.23224 15.1897C9.39395 15.4812 9.56085 15.7697 9.73146 16.0561C10.1706 16.7949 10.8567 17.0797 11.689 16.875C11.7476 16.8609 11.8077 16.8527 11.893 16.8372C12.1126 17.7985 12.7179 18.2985 13.726 18.3319C13.726 18.639 13.7452 18.9349 13.7208 19.2272C13.6948 19.538 13.4982 19.716 13.1859 19.7405C13.0012 19.7546 12.8151 19.745 12.6296 19.745C8.68555 19.745 4.7415 19.745 0.796702 19.745C0.166929 19.745 -0.00219727 19.5803 -0.00219727 18.9646C2.80798e-05 13.1535 2.80798e-05 7.34311 2.80798e-05 1.53347C2.80798e-05 0.9126 0.166929 0.747925 0.794476 0.747925C3.86026 0.747925 6.92679 0.747925 9.99331 0.747925H10.3916ZM6.87857 5.24016C5.48328 5.24016 4.08725 5.24016 2.69195 5.2409C2.55695 5.2409 2.4175 5.23793 2.28694 5.2676C2.011 5.32991 1.86116 5.52203 1.86413 5.79872C1.86709 6.0754 2.0199 6.26381 2.29658 6.32242C2.41601 6.34764 2.54211 6.34615 2.66525 6.34615C5.46919 6.34764 8.27238 6.34764 11.0763 6.34615C11.1995 6.34615 11.3256 6.34689 11.4442 6.32019C11.7202 6.2564 11.8693 6.06502 11.8663 5.78833C11.8641 5.51165 11.7113 5.32175 11.4339 5.26463C11.3026 5.23793 11.1638 5.2409 11.0288 5.24016C9.64542 5.23867 8.26199 5.23941 6.87931 5.23941L6.87857 5.24016ZM5.3824 8.57446C6.08635 8.57446 6.78956 8.57446 7.49351 8.57446C7.78948 8.57446 8.08693 8.58411 8.38142 8.56334C8.69519 8.54108 8.87545 8.3497 8.89993 8.03741C8.92292 7.74664 8.69965 7.51372 8.3792 7.47514C8.29389 7.46476 8.20636 7.46698 8.12031 7.46698C6.2933 7.46698 4.4663 7.46624 2.64003 7.46773C2.51764 7.46773 2.35519 7.4388 2.27952 7.50333C2.11633 7.64279 1.92273 7.81636 1.87822 8.00774C1.81739 8.26811 2.0021 8.47655 2.27581 8.54405C2.40488 8.57595 2.54508 8.57298 2.68009 8.57372C3.58135 8.57595 4.48262 8.57521 5.38314 8.57521L5.3824 8.57446ZM5.37943 16.3699C4.651 16.3699 3.92257 16.3699 3.19488 16.3699C2.92339 16.3699 2.65116 16.3602 2.38041 16.381C2.06663 16.4047 1.88638 16.5946 1.8619 16.9069C1.83965 17.1977 2.06292 17.4306 2.38337 17.4692C2.46868 17.4796 2.55621 17.4773 2.64225 17.4773C4.46926 17.4773 6.29627 17.4781 8.12254 17.4766C8.24493 17.4766 8.40738 17.5055 8.48304 17.441C8.64624 17.3015 8.83984 17.128 8.88435 16.9366C8.94517 16.6762 8.76121 16.4678 8.4875 16.4003C8.35843 16.3684 8.21823 16.3713 8.08322 16.3706C7.18196 16.3684 6.28069 16.3691 5.38017 16.3691L5.37943 16.3699ZM4.82013 10.8006C5.57303 10.8006 6.3252 10.8035 7.07811 10.7991C7.54172 10.7961 7.79838 10.5854 7.78948 10.2323C7.78058 9.89484 7.52986 9.6953 7.08775 9.69381C5.58268 9.6901 4.07686 9.6901 2.57179 9.69381C2.10966 9.69456 1.85077 9.90819 1.86042 10.2605C1.86932 10.601 2.11633 10.7961 2.56288 10.7991C3.31579 10.8043 4.06796 10.8006 4.82087 10.8006H4.82013ZM4.80529 13.0259C5.57007 13.0259 6.33559 13.0296 7.10036 13.0244C7.54098 13.0214 7.78874 12.8152 7.78948 12.4725C7.78948 12.1313 7.54098 11.9214 7.10185 11.9199C5.58416 11.9155 4.06648 11.9155 2.54879 11.9199C2.11188 11.9214 1.86042 12.132 1.85968 12.471C1.85968 12.813 2.10817 13.0207 2.54731 13.0237C3.30022 13.0296 4.05238 13.0252 4.80529 13.0252V13.0259ZM4.80752 15.252C5.57229 15.252 6.33781 15.2557 7.10259 15.2505C7.5395 15.2475 7.79022 15.0369 7.78948 14.6964C7.78874 14.3529 7.54247 14.1475 7.09962 14.146C5.58194 14.1415 4.06425 14.1415 2.54657 14.146C2.10966 14.1475 1.85893 14.3589 1.85968 14.6994C1.86116 15.0384 2.11262 15.2468 2.54953 15.2498C3.30244 15.255 4.05461 15.2512 4.80752 15.2512V15.252Z" fill="black"/>
<path d="M12.0414 15.4612C11.9627 15.5027 11.8856 15.5405 11.8107 15.5821C11.0956 15.9834 10.9502 15.9418 10.5318 15.2179C10.3338 14.8759 10.1313 14.5362 9.94063 14.1905C9.72848 13.8055 9.78189 13.4984 10.1706 13.3241C10.5719 13.1446 10.6157 12.8798 10.6275 12.4866C10.6409 12.0512 10.5489 11.7834 10.1328 11.5943C9.79525 11.4407 9.73071 11.1381 9.90874 10.8109C10.1684 10.334 10.4406 9.86294 10.7232 9.39933C10.902 9.10558 11.1816 9.03437 11.4924 9.18495C11.6801 9.27619 11.8589 9.38672 12.0384 9.48686C12.1652 9.40229 12.2691 9.3029 12.393 9.25765C12.8581 9.08555 13.0895 8.80739 13.0316 8.27034C12.9975 7.95285 13.2571 7.75109 13.5835 7.74144C14.1273 7.72513 14.6717 7.72513 15.2154 7.7407C15.5915 7.75109 15.8193 7.97733 15.7948 8.36306C15.7688 8.76659 15.8986 8.97725 16.268 9.18569C16.6545 9.40304 16.9297 9.47721 17.3125 9.20572C17.6188 8.98838 17.9148 9.1041 18.121 9.44532C18.3829 9.87852 18.6358 10.3177 18.8821 10.7598C19.0927 11.1366 19.0312 11.4385 18.6425 11.6269C18.282 11.8012 18.1841 12.0156 18.1826 12.4199C18.1803 12.8805 18.2679 13.1661 18.71 13.3642C19.0245 13.5051 19.0809 13.8181 18.9132 14.1252C18.6536 14.6022 18.3829 15.074 18.0988 15.5368C17.9014 15.858 17.5966 15.9418 17.2702 15.72C16.9304 15.4894 16.6871 15.5101 16.3244 15.7238C15.9379 15.9515 15.7488 16.1644 15.7911 16.6258C15.8237 16.9751 15.573 17.1947 15.208 17.2051C14.6769 17.2199 14.1443 17.2199 13.6132 17.2051C13.2341 17.194 12.9856 16.9722 13.025 16.5916C13.0739 16.1258 12.8862 15.8899 12.4812 15.7386C12.324 15.68 12.1905 15.5576 12.0391 15.4604L12.0414 15.4612ZM14.421 14.0384C15.3007 14.034 15.9862 13.3337 15.9765 12.451C15.9669 11.5846 15.2829 10.9081 14.4158 10.9059C13.5368 10.9037 12.8373 11.5987 12.8388 12.4748C12.8395 13.3493 13.542 14.0436 14.421 14.0384Z" fill="black"/>
<path d="M11.5228 0.828777C12.611 1.04241 13.4997 1.94442 13.6384 2.95621C13.5546 2.96288 13.4722 2.97475 13.3892 2.97475C12.7735 2.97624 12.1585 2.97549 11.5228 2.97549V0.828777Z" fill="black"/>
</g>
<defs>
<clipPath id="clip0_1_3514">
<rect width="19.0067" height="19" fill="white" transform="translate(0 0.747925)"/>
</clipPath>
</defs>
</svg>
