<svg width="19" height="20" viewBox="0 0 19 20" fill="none" xmlns="http://www.w3.org/2000/svg">
<g clip-path="url(#clip0_1_3508)">
<path d="M0 10.1828C0.0122035 4.91663 4.15244 0.766636 9.17051 0.747924C13.9461 0.730026 17.9904 4.45209 18.3719 9.21714C18.4224 9.84846 18.3256 9.95341 17.6861 9.95504C17.4282 9.95504 17.1703 9.94528 16.9132 9.95748C16.5235 9.97538 16.3665 9.80697 16.3307 9.41158C16.0419 6.22403 13.8884 3.72395 10.8163 2.98523C6.11069 1.85356 1.59215 5.80749 2.08842 10.623C2.4472 14.1067 5.08641 16.7231 8.60101 17.0802C9.14203 17.1356 9.20142 17.1974 9.20549 17.7238C9.20793 17.9947 9.20874 18.2664 9.20549 18.5373C9.19898 19.0564 9.09322 19.1654 8.5701 19.1247C6.79896 18.9881 5.17834 18.4186 3.75786 17.3455C1.30333 15.4922 0.0846108 13.0002 0 10.1828Z" fill="black"/>
<path d="M9.20795 4.69941C11.8569 4.70267 14.1365 6.71949 14.4107 9.30419C14.4652 9.81674 14.3537 9.94853 13.8526 9.95423C13.5548 9.9583 13.2554 9.94121 12.9585 9.9583C12.5859 9.97945 12.4289 9.80209 12.363 9.44982C12.101 8.04235 11.2638 7.14987 9.87507 6.81793C8.13567 6.40139 6.40847 7.55665 6.04643 9.3465C5.70148 11.0542 6.8779 12.7911 8.59289 13.106C9.18517 13.215 9.20388 13.237 9.20551 13.8439C9.20551 14.1148 9.21039 14.3865 9.20388 14.6574C9.1933 15.087 9.05337 15.2066 8.62055 15.1692C6.47356 14.9845 4.55435 13.2719 4.07354 11.1119C3.34133 7.82025 5.84223 4.69697 9.20713 4.70104L9.20795 4.69941Z" fill="black"/>
<path d="M18.7152 13.8414C18.6746 13.8089 18.6176 13.7967 18.5672 13.7772C15.7661 12.6935 12.965 11.6098 10.163 10.5262C10.1378 10.5164 10.1118 10.5066 10.0833 10.4961C9.90351 10.431 9.70581 10.5815 9.74405 10.7686C9.74649 10.78 9.74975 10.7914 9.75381 10.8028C10.8594 13.6974 11.9748 16.588 13.0943 19.4778C13.1342 19.5803 13.2359 19.6584 13.3091 19.7479C13.3896 19.6511 13.5035 19.5673 13.5442 19.4559C13.8867 18.5154 14.2724 17.5847 14.5311 16.6206C14.7328 15.8672 15.1388 15.4865 15.88 15.2815C16.8424 15.0154 17.7731 14.6339 18.7144 14.2922C18.8177 14.2547 18.8999 14.1587 18.9918 14.0896C18.8999 14.0058 18.8112 13.9187 18.7152 13.8414Z" fill="black"/>
<path d="M10.5462 10.1715C10.1525 10.0665 9.788 9.78419 9.41945 10.1373C9.00128 10.5384 9.35762 10.9403 9.43979 11.3373C8.94189 11.509 8.39761 11.3096 8.06812 10.8459C7.7069 10.3374 7.7248 9.6703 8.11124 9.18297C8.49768 8.69646 9.14447 8.52561 9.71884 8.75747C10.2908 8.98853 10.6056 9.51246 10.5454 10.1715H10.5462Z" fill="black"/>
</g>
<defs>
<clipPath id="clip0_1_3508">
<rect width="18.9919" height="19" fill="white" transform="translate(0 0.747925)"/>
</clipPath>
</defs>
</svg>
