<svg width="21" height="23" viewBox="0 0 21 23" fill="none" xmlns="http://www.w3.org/2000/svg">
<g clip-path="url(#clip0_1_3501)">
<path d="M20.6905 15.9538C20.6879 19.5107 17.8139 22.3691 14.2484 22.3587C10.7236 22.3483 7.85569 19.4526 7.87565 15.9243C7.89561 12.3865 10.7704 9.52907 14.3013 9.53601C17.8339 9.54295 20.6931 12.4143 20.6905 15.9538ZM13.9099 16.4641C13.3928 15.9356 12.9268 15.4419 12.4409 14.9698C12.0972 14.6357 11.6174 14.6401 11.3145 14.9473C11.0013 15.2649 11.0004 15.7109 11.3475 16.0675C12.0018 16.7409 12.6665 17.4038 13.3381 18.0599C13.6835 18.3974 14.1017 18.4382 14.4245 18.1249C15.5014 17.0784 16.5731 16.0241 17.6031 14.9325C17.7636 14.7624 17.7948 14.345 17.7081 14.1064C17.636 13.906 17.3115 13.696 17.0859 13.6804C16.8568 13.6647 16.5652 13.8339 16.3821 14.0084C15.5587 14.7945 14.7638 15.6102 13.9091 16.4649L13.9099 16.4641Z" fill="black"/>
<path d="M0.00170007 11.0755C0.00170007 8.22668 -3.5418e-05 5.37701 0.00256782 2.5282C0.00343556 0.977542 0.840809 0.137566 2.38366 0.136698C6.70936 0.13583 11.0342 0.13583 15.3599 0.136698C16.8897 0.136698 17.7297 0.970601 17.7306 2.48829C17.7315 4.03547 17.7341 5.58353 17.7245 7.13072C17.7219 7.64182 17.4182 8.03404 16.9609 8.17288C16.5036 8.31172 15.9847 8.15032 15.7461 7.73814C15.6298 7.53682 15.563 7.2791 15.5586 7.04481C15.5395 5.96013 15.5517 4.87545 15.5499 3.79077C15.5482 2.74687 15.1109 2.30432 14.0835 2.30432C10.5969 2.30432 7.11026 2.30432 3.62453 2.30432C2.63183 2.30432 2.18928 2.74167 2.18928 3.72656C2.18842 8.58593 2.18842 13.4462 2.18928 18.3055C2.18928 19.4275 2.60667 19.838 3.74341 19.8406C4.68405 19.8432 5.62382 19.838 6.56445 19.8423C7.26472 19.8458 7.73764 20.2718 7.74719 20.8958C7.7576 21.5422 7.28468 21.9943 6.56532 21.9987C5.11879 22.0056 3.67226 22.0108 2.22573 21.9978C0.881593 21.9865 0.00864203 21.1057 0.0043033 19.7538C-0.0035064 16.8616 0.00170007 13.9685 0.00170007 11.0755Z" fill="black"/>
<path d="M8.08045 6.97789C7.25609 6.97789 6.4326 6.98223 5.60824 6.97616C4.8776 6.97095 4.38733 6.54055 4.37865 5.9123C4.36997 5.2693 4.87153 4.83023 5.62647 4.82849C7.27431 4.82589 8.92216 4.82589 10.5709 4.82849C11.3275 4.82936 11.8256 5.26583 11.8187 5.9097C11.8117 6.55357 11.3189 6.97269 10.5518 6.97616C9.72743 6.97963 8.90394 6.97616 8.07958 6.97616L8.08045 6.97789Z" fill="black"/>
<path d="M7.01485 11.1439C6.52371 11.1439 6.03257 11.1526 5.54229 11.1422C4.85417 11.1275 4.37344 10.6719 4.37951 10.0593C4.38559 9.44316 4.86718 9.00148 5.55878 8.99627C6.5402 8.9902 7.52248 8.9902 8.5039 8.99627C9.20677 9.00061 9.66928 9.42407 9.67622 10.0532C9.68317 10.684 9.22673 11.1257 8.53167 11.1413C8.02664 11.1526 7.52075 11.1439 7.01572 11.1439H7.01485Z" fill="black"/>
<path d="M5.91628 15.3273C5.68633 15.3082 5.45204 15.3134 5.22903 15.2657C4.69884 15.1512 4.35261 14.6748 4.39599 14.1559C4.44025 13.6248 4.84028 13.2074 5.37655 13.1675C5.70716 13.1432 6.04124 13.1519 6.37358 13.1614C7.00096 13.1805 7.46 13.6309 7.46781 14.221C7.47562 14.7841 7.03828 15.2484 6.4378 15.3039C6.26598 15.3195 6.09157 15.3065 5.91802 15.3065L5.91628 15.3282V15.3273Z" fill="black"/>
</g>
<defs>
<clipPath id="clip0_1_3501">
<rect width="20.6905" height="22.2221" fill="white" transform="translate(0 0.136597)"/>
</clipPath>
</defs>
</svg>
