<svg width="22" height="20" viewBox="0 0 22 20" fill="none" xmlns="http://www.w3.org/2000/svg">
<g clip-path="url(#clip0_1_3493)">
<path d="M10.7973 19.708C9.48005 19.708 8.16279 19.7114 6.84468 19.7071C5.73563 19.7029 5.15348 19.1479 5.15348 18.0431C5.15348 16.6995 5.0753 15.3398 5.24442 14.0149C5.57161 11.4441 7.57979 9.70275 10.2067 9.58717C10.9953 9.55233 11.8044 9.55742 12.5777 9.6934C14.6582 10.058 16.4607 12.0849 16.5865 14.201C16.6646 15.514 16.6476 16.8347 16.6221 18.1502C16.6018 19.1853 16.1437 19.6298 15.0882 19.6782C13.9995 19.7275 12.9083 19.7284 11.818 19.7471C11.478 19.753 11.1381 19.7479 10.7982 19.7479V19.7097L10.7973 19.708Z" fill="black"/>
<path d="M10.8746 8.14329C8.82479 8.13564 7.18119 6.47929 7.19479 4.43456C7.20838 2.39153 8.87918 0.734334 10.9095 0.747932C12.9491 0.761529 14.6003 2.43318 14.5893 4.47026C14.5774 6.52178 12.9295 8.15094 10.8746 8.14329Z" fill="black"/>
<path d="M3.85491 18.3176C2.88014 18.3176 1.91981 18.3576 0.965436 18.3023C0.435983 18.2717 0.0195582 17.7185 0.0144591 17.1559C0.00171146 15.5284 -0.0144356 13.901 0.0204081 12.2744C0.0459034 11.0761 0.94334 9.99764 2.13992 9.70445C3.01526 9.49029 3.9127 9.50643 4.78549 9.74864C5.10079 9.83617 5.38633 10.0342 5.66678 10.1727C5.65148 10.267 5.65658 10.3019 5.64214 10.318C4.31128 11.6812 3.88126 13.3741 3.85746 15.2114C3.84386 16.2296 3.85491 17.2485 3.85491 18.3193V18.3176Z" fill="black"/>
<path d="M17.9275 18.304C17.9275 17.2409 17.9385 16.2219 17.925 15.2021C17.9012 13.3503 17.4907 11.6353 15.9984 10.1974C16.4819 9.99594 16.8754 9.73504 17.2961 9.6798C17.9632 9.59227 18.6567 9.56847 19.3238 9.64751C20.7439 9.81578 21.7629 11.0217 21.7731 12.4588C21.7833 13.9596 21.779 15.4613 21.7739 16.963C21.7714 17.8009 21.2657 18.3261 20.4388 18.3414C19.6603 18.3559 18.881 18.3457 18.1017 18.344C18.049 18.344 17.9955 18.3202 17.9258 18.304H17.9275Z" fill="black"/>
<path d="M3.39431 8.14158C2.1051 8.13478 1.07848 7.10562 1.07593 5.81725C1.07338 4.52124 2.13994 3.45638 3.42661 3.46998C4.70732 3.48357 5.73904 4.52464 5.74328 5.8079C5.74753 7.11242 4.70392 8.14923 3.39346 8.14243L3.39431 8.14158Z" fill="black"/>
<path d="M18.3737 8.14157C17.0819 8.14157 16.0527 7.12261 16.0408 5.83254C16.0281 4.53738 17.0853 3.46827 18.3762 3.46997C19.6705 3.47082 20.7218 4.53823 20.7082 5.83509C20.6946 7.12686 19.6671 8.14242 18.3737 8.14242V8.14157Z" fill="black"/>
</g>
<defs>
<clipPath id="clip0_1_3493">
<rect width="21.7807" height="19" fill="white" transform="translate(0 0.747925)"/>
</clipPath>
</defs>
</svg>
