<svg width="74" height="29" viewBox="0 0 74 29" fill="none" xmlns="http://www.w3.org/2000/svg">
<g clip-path="url(#clip0_1_3748)">
<path d="M28.9673 0.746918C33.2268 0.787332 37.1669 1.20413 41.0004 2.3883C44.0519 3.33145 46.8745 4.75957 49.5701 6.45159C50.2362 6.86985 50.8906 7.3071 51.5421 7.74775C51.958 8.03435 52.4442 8.20203 52.9483 8.23272C55.2962 8.39145 57.6451 8.53363 59.989 8.73229C62.5288 8.94653 64.9872 9.4948 67.2825 10.6605C68.7345 11.3977 69.9825 12.3949 71.0741 13.5893C71.7465 14.3255 72.3888 15.0889 73.032 15.851C73.2862 16.1519 73.3451 16.521 73.293 16.9071C73.0851 18.4506 72.8791 19.9941 72.6649 21.5366C72.6412 21.6678 72.6468 21.8026 72.681 21.9314C72.7153 22.0602 72.7774 22.18 72.863 22.2821C73.236 22.7413 73.235 23.0685 72.9059 23.5642C72.3586 24.3875 71.5508 24.7707 70.612 24.9275C67.4844 25.4443 64.3557 25.9577 61.2258 26.4676C59.4052 26.7598 57.5681 26.8932 55.7281 26.9798C53.537 27.0826 51.3512 27.1785 49.163 27.2827C49.0033 27.2905 48.8314 27.3075 48.6893 27.3728C47.5548 27.8923 46.3608 28.1518 45.1236 28.275C43.4603 28.4391 41.8019 28.6461 40.14 28.8199C38.2581 29.0171 36.6596 28.3968 35.3142 27.0923C35.0007 26.7885 34.6365 26.6371 34.2119 26.5864C31.5621 26.2704 28.9128 25.9476 26.2625 25.6335C23.975 25.3628 21.6865 25.0965 19.3971 24.8345C17.4981 24.6144 15.5943 24.3914 13.6914 24.1796C12.701 24.0696 11.716 24.1718 10.73 24.2731C9.10696 24.4396 7.48391 24.5911 5.86087 24.7274C4.29398 24.8574 3.15022 24.1314 2.28303 22.8864C1.72181 22.0855 1.34804 21.1685 1.18943 20.2035C0.932825 18.6512 0.705436 17.0916 0.702515 15.5126C0.702515 14.0148 1.03654 12.6028 1.84822 11.3251C2.69107 9.99535 3.90786 9.12085 5.31309 8.47861C5.72064 8.29115 6.15594 8.16114 6.54547 7.95323C7.39465 7.49845 8.23311 7.02177 9.06281 6.53145C12.3305 4.59986 15.7647 3.05245 19.4151 1.99001C21.5843 1.35702 23.7973 1.0079 26.0478 0.880332C27.1078 0.818981 28.1703 0.782949 28.9673 0.746918ZM44.7341 25.9422C49.6738 26.3201 54.5605 25.7825 59.4797 25.4514C59.1214 24.9645 58.7007 24.7011 58.1086 24.7809C56.9278 24.9402 55.7631 24.8116 54.6028 24.5862C54.0307 24.4742 53.9304 24.3822 53.8695 23.8071C53.8695 23.794 53.8501 23.7828 53.8043 23.7302H47.4744C47.4744 23.7054 47.471 23.6815 47.4695 23.6552C47.5523 23.643 47.6346 23.6265 47.7174 23.6201C49.7472 23.4604 51.7771 23.3015 53.8072 23.1435C54.1825 23.1172 54.5342 22.9513 54.7932 22.6785C55.2801 22.1915 55.7836 21.7202 56.2841 21.2464C57.0476 20.5239 57.9533 20.0486 58.9826 19.8831C60.1103 19.7034 61.2506 19.5958 62.3886 19.4906C64.4488 19.3001 66.5101 19.1242 68.5723 18.9628C69.7575 18.8708 70.9436 18.6658 72.1361 18.8947C72.1492 18.8971 72.1648 18.8839 72.2018 18.8688C72.2661 18.2802 72.3313 17.6803 72.4005 17.0468H69.1971C69.1971 17.0356 69.1971 17.0244 69.1971 17.0137L72.5422 16.6042C72.3961 16.2361 72.1814 15.9912 71.8279 15.8802C71.7064 15.8346 71.5889 15.7789 71.4768 15.7137C70.8979 15.4166 70.299 15.2487 69.6324 15.2784C66.9168 15.3981 64.2009 15.4945 61.4848 15.5997C60.3727 15.6426 59.2796 15.5549 58.2313 15.1425C58.1779 15.1245 58.1227 15.1121 58.0667 15.1055C58.2868 15.3465 58.5181 15.6065 58.7567 15.8597C58.9003 16.0126 58.8857 16.1197 58.6792 16.1611C58.4275 16.2098 58.166 16.2687 57.9133 16.2532C56.772 16.1826 55.6331 16.0623 54.4908 16.0097C52.9427 15.9461 51.4383 15.4779 50.1276 14.6517C49.4816 14.2476 48.8366 13.8418 48.1926 13.4344C47.9541 13.2761 47.6627 13.2184 47.3819 13.2737C46.6549 13.4008 45.9251 13.5104 45.1957 13.6233C44.9186 13.6662 44.6401 13.7003 44.3625 13.7382C44.5158 13.6261 44.6895 13.5449 44.8738 13.4992C46.1817 13.1837 47.4934 12.8832 48.7998 12.5624C50.1251 12.232 51.519 12.3056 52.8022 12.7737C53.7322 13.1048 54.633 13.5182 55.545 13.8984C55.7826 13.9958 56.0144 14.1102 56.2491 14.2164C56.0937 14.059 55.9126 13.9294 55.7135 13.8332C53.7171 12.8827 51.7276 11.905 49.647 11.1381C47.0995 10.1998 44.4882 9.5245 41.7785 9.31659C39.2714 9.12426 36.7589 9.00253 34.2479 8.86181C33.3544 8.81312 32.478 8.74252 31.6385 8.36662C29.65 7.47606 28.272 5.98075 27.2909 4.08179C27.1459 3.81053 27.0332 3.52325 26.9549 3.22579C26.821 2.67558 27.0698 2.20327 27.5879 1.9715C27.7571 1.89351 27.9364 1.83959 28.1206 1.81131C28.5783 1.74704 29.0384 1.70175 29.4986 1.65842C29.8803 1.6219 30.2635 1.59853 30.6457 1.56931C22.7986 0.990374 15.7481 3.34363 9.15874 7.40497L12.0442 7.19511C12.0033 6.78415 12.1143 6.42432 12.423 6.17843C12.8335 5.85123 13.2464 5.50601 13.7094 5.26888C15.8173 4.18793 18.0391 3.39816 20.3271 2.79487C21.5804 2.46475 22.7665 2.59719 23.9146 3.26085C25.0121 3.89384 25.946 4.7026 26.8054 5.618C29.0744 8.03455 30.6652 10.8143 31.3732 14.0728C31.4219 14.3001 31.4671 14.528 31.5168 14.769C32.2214 14.769 32.903 14.7491 33.5823 14.7759C34.0205 14.7934 34.3097 14.6356 34.5561 14.2753C36.475 11.4707 40.1814 10.9312 42.747 13.1462C44.5305 14.6853 45.5399 16.7006 45.9075 19.0237C46.1953 20.8418 45.9314 22.6147 45.3563 24.3461C45.1806 24.8749 44.9527 25.3847 44.7341 25.9422ZM30.6297 14.7486C30.6297 14.6244 30.6438 14.5329 30.6272 14.4482C30.5254 13.9403 30.4471 13.4256 30.3044 12.9285C29.9728 11.775 29.3924 10.732 28.8247 9.68275C28.6328 9.32779 28.3791 9.18269 27.9872 9.19583C26.6725 9.24745 25.3608 9.28883 24.0471 9.32973C21.7781 9.39936 19.5188 9.3049 17.2975 8.80046C16.6898 8.66218 16.0895 8.48737 15.4905 8.31355C14.9204 8.148 14.4271 8.25512 14.0196 8.6836C12.6168 10.1551 12.0895 11.8188 12.9182 13.7514C13.4538 15.0023 13.8886 16.296 14.3916 17.5615C14.539 17.9468 14.7336 18.3124 14.971 18.6497C15.5948 19.5082 16.5067 19.8948 17.5181 20.0686C20.2832 20.5438 23.0479 21.023 25.818 21.4699C27.0255 21.6647 28.2443 21.7971 29.4606 21.932C30.0376 21.9958 30.3098 21.764 30.3886 21.1866C30.469 20.6023 30.5595 20.0116 30.5746 19.422C30.6107 18.0518 30.6043 16.6802 30.6141 15.3095C30.6099 15.2567 30.6019 15.2044 30.5902 15.1527L27.0221 14.8314L27.0284 14.7491L30.6297 14.7486ZM1.58383 14.4078C1.98456 13.8721 2.33952 13.3828 2.71103 12.9056C3.05187 12.4674 3.4526 12.0808 3.99356 11.8958C4.98394 11.5549 5.9008 11.7521 6.73829 12.3423C7.46866 12.8555 7.97213 13.5669 8.33439 14.3639C9.3832 16.668 9.45916 19.03 8.67523 21.4281C8.63092 21.5625 8.58417 21.6954 8.53402 21.8429C8.63141 21.8527 8.69617 21.8595 8.76044 21.8653C9.96457 21.9685 11.1741 22.0279 12.3714 22.1833C15.5558 22.5957 18.7383 23.0232 21.9149 23.4935C25.5964 24.0379 29.2702 24.6354 32.9478 25.207C33.295 25.261 33.6451 25.2956 34.0405 25.3453C33.2828 23.756 32.8539 22.138 32.8232 20.4245C32.7925 18.7111 33.1577 17.0814 33.8004 15.4692L31.4754 15.2569C31.4696 15.3363 31.4657 15.3757 31.4642 15.4152C31.3931 17.0444 31.3318 18.6736 31.2461 20.3018C31.2275 20.7551 31.1623 21.2053 31.0513 21.6452C30.8892 22.2553 30.4578 22.6249 29.8214 22.7004C29.5245 22.742 29.2234 22.7439 28.9259 22.7062C26.7694 22.3785 24.6138 22.045 22.4617 21.6905C20.6601 21.394 18.8634 21.0833 17.0706 20.7469C15.9916 20.5438 15.0221 20.0939 14.3633 19.1688C14.1428 18.8596 13.8867 18.7671 13.5424 18.7685C12.6499 18.772 11.7574 18.7661 10.8644 18.7642H10.5528L10.5484 18.7038L13.8501 18.3381C13.8297 18.2622 13.8214 18.2154 13.8049 18.1716C13.3326 16.9465 12.8432 15.7273 12.3928 14.4939C12.1547 13.8415 11.9127 13.1763 11.7988 12.4976C11.5655 11.104 12.0758 9.90088 12.9289 8.8214C13.1076 8.59498 13.2878 8.36954 13.4835 8.12365C13.3627 8.09249 13.279 8.06668 13.1913 8.05061C13.088 8.02967 12.9834 8.01568 12.8783 8.00874C10.7972 7.91428 8.74486 8.05743 6.75046 8.71866C5.40804 9.16321 4.17761 9.79279 3.19259 10.8348C2.26064 11.8193 1.72503 12.9894 1.58383 14.4087V14.4078ZM40.8967 8.41336C40.8967 8.43089 40.9011 8.44842 40.903 8.46595C41.0399 8.47472 41.1772 8.48007 41.314 8.49322C44.5734 8.80095 47.7145 9.60874 50.7625 10.791C53.088 11.6927 55.3103 12.8146 57.5024 13.9973C58.6771 14.6392 60.0068 14.9426 61.3436 14.8737C63.824 14.7598 66.304 14.6424 68.7837 14.5217C68.8504 14.5183 68.9166 14.5066 68.9833 14.4993C68.4443 14.1414 67.9009 13.8205 67.3458 13.5216C62.594 10.9599 57.5024 9.49431 52.1663 8.82383C49.0686 8.4343 45.9572 8.31842 42.838 8.36808C42.1909 8.37831 41.5438 8.39778 40.8967 8.41336ZM33.9791 20.5555C34.004 20.8223 34.0278 21.2523 34.0853 21.6754C34.3224 23.385 35.0012 24.889 36.2827 26.0649C37.5643 27.2408 39.0455 27.5641 40.6752 26.9161C41.816 26.4623 42.6257 25.5931 43.1867 24.5346C44.6902 21.6968 44.5787 18.8766 42.9106 16.1431C42.242 15.048 41.2969 14.2237 40.0217 13.8975C38.2927 13.4549 36.8685 14.0362 35.7369 15.3509C34.4943 16.7941 34.02 18.5217 33.9791 20.5555ZM69.2959 13.8249C68.9297 13.3619 68.5655 12.9821 68.2982 12.5429C67.9321 11.9396 67.4374 11.5301 66.8083 11.236C64.9692 10.3756 63.0298 9.87508 61.0271 9.59802C60.4107 9.51281 59.7914 9.44952 59.173 9.37599L59.1569 9.43783C62.7182 10.4311 66.092 11.8583 69.2959 13.8249ZM1.7338 18.175C1.78249 18.5499 1.83118 19.2297 1.95388 19.8972C2.14864 20.9645 2.58687 21.9228 3.38979 22.6789C4.21072 23.4517 5.26391 23.5096 6.1535 22.8177C6.88387 22.2514 7.30651 21.469 7.59671 20.612C7.97066 19.5077 8.01254 18.3678 7.87669 17.2226C7.73062 15.9834 7.27779 14.8698 6.40037 13.9603C5.41389 12.9378 4.13914 12.9305 3.18285 13.9798C2.18516 15.0738 1.72503 16.3885 1.7338 18.175ZM27.305 7.14836C27.2534 7.0466 27.2354 6.98087 27.194 6.93656C27.1346 6.88151 27.0706 6.83166 27.0026 6.78756C25.8696 5.92524 24.6046 5.61167 23.2008 5.87022C22.8843 5.92865 22.7475 6.05719 22.7407 6.30844C22.7334 6.5519 22.877 6.7228 23.1604 6.79925C23.2154 6.81294 23.2714 6.82206 23.3279 6.82651C24.2487 6.90588 25.1684 6.98671 26.0892 7.06315C26.4743 7.09675 26.8605 7.11818 27.305 7.14836ZM72.3445 22.9297C72.0762 22.6103 71.7762 22.4988 71.3741 22.6663C70.949 22.8435 70.5039 22.9711 70.0686 23.1225C70.0182 23.1445 69.9694 23.1701 69.9226 23.199C71.0882 23.7209 71.7222 23.6479 72.343 22.9297H72.3445Z" fill="#242E69"/>
<path d="M46.7919 17.1613L63.5271 17.4593C63.104 17.6906 57.8419 18.012 55.1712 17.9691C52.8024 17.9312 47.4872 17.4262 46.7919 17.1613Z" fill="#242E69"/>
<path d="M60.9285 12.8561C61.4938 12.5293 62.2398 12.859 62.7919 13.6478C62.5129 13.8776 62.269 13.9209 62.0085 13.7286C61.6394 13.4555 61.2932 13.1536 60.9285 12.8561Z" fill="#242E69"/>
<path d="M34.3294 20.4986C34.3172 19.2327 34.5242 18.0154 35.1226 16.8809C35.553 16.0658 36.1173 15.3578 36.8808 14.8358C38.3649 13.8162 40.1884 13.9521 41.5722 15.1587C42.7924 16.2231 43.4882 17.5733 43.7429 19.1557C44.0326 20.9515 43.8403 22.6849 42.9448 24.2946C42.4326 25.2134 41.7134 25.9428 40.7674 26.4244C39.3636 27.1377 37.7568 26.8942 36.5044 25.7636C35.1474 24.54 34.4648 22.9882 34.3318 21.1798C34.3153 20.9539 34.3294 20.726 34.3294 20.4986Z" fill="#242E69"/>
<path d="M1.94238 18.1493C1.95699 16.6788 2.37476 15.3559 3.37002 14.2428C4.17196 13.3459 5.3089 13.3045 6.17999 14.1391C6.9756 14.9016 7.36952 15.8628 7.5672 16.9218C7.84474 18.4074 7.69672 19.8457 7.05254 21.2193C6.80893 21.7354 6.44991 22.1885 6.00324 22.5437C5.31474 23.0978 4.49381 23.1168 3.7795 22.5977C3.02674 22.0514 2.5705 21.2977 2.29783 20.4256C2.06422 19.6893 1.94435 18.9217 1.94238 18.1493Z" fill="#242E69"/>
</g>
<defs>
<clipPath id="clip0_1_3748">
<rect width="72.606" height="28.108" fill="white" transform="translate(0.704651 0.747986)"/>
</clipPath>
</defs>
</svg>
